<?xml version="1.0" encoding="utf-8"?>
<!-- Generator: Adobe Illustrator 26.1.0, SVG Export Plug-In . SVG Version: 6.00 Build 0)  -->
<svg version="1.1" id="Layer_1" xmlns="http://www.w3.org/2000/svg" xmlns:xlink="http://www.w3.org/1999/xlink" width="456" height="96"
	 viewBox="0 0 456 96" style="enable-background:new 0 0 456 96;" xml:space="preserve">
<style type="text/css">
	.st0{fill:#000B25;}
	.st1{fill:#FFFFFF;}
	.st2{fill:url(#SVGID_1_);}
	.st3{fill-rule:evenodd;clip-rule:evenodd;fill:#1D1D1B;}
	.st4{fill-rule:evenodd;clip-rule:evenodd;fill:#FFFFFF;}
	.st5{enable-background:new    ;}
</style>
<g>
	<ellipse class="st0" cx="50.1" cy="48" rx="50" ry="48"/>
	<rect x="36.4" y="20.6" class="st1" width="13.5" height="5.6"/>
	
		<linearGradient id="SVGID_1_" gradientUnits="userSpaceOnUse" x1="16.6369" y1="59.7801" x2="85.968" y2="19.7518" gradientTransform="matrix(1 0 0 -1 0 98)">
		<stop  offset="4.993059e-09" style="stop-color:#FFFFFF"/>
		<stop  offset="1.298195e-07" style="stop-color:#A85DC3"/>
		<stop  offset="0.1475" style="stop-color:#9864C5"/>
		<stop  offset="0.4344" style="stop-color:#6F75CC"/>
		<stop  offset="0.8288" style="stop-color:#2E90D5"/>
		<stop  offset="1" style="stop-color:#0F9DDA"/>
	</linearGradient>
	<path class="st2" d="M85.9,51.5c-0.5-18.3-17.8-35.6-35.7-35.8c-18-0.2-35.7,16.7-36.6,34.9c-0.4,8.6,0.2,9.4,8.9,10.9
		c0.9,9.6-0.5,15-6.5,21.7c0.8,0.7,1.6,1.4,2.5,2.1c0.2-0.2,0.4-0.4,0.6-0.7c5.3-7.3,7.9-10.3,7.3-18.8c-0.4-5.6,1.2-8.3,7.2-7.9
		c0.9,11.2-1.5,16.8-6.1,27.3c-0.7,1.6-1.5,3.1-2.4,4.4c1.1,0.6,2.3,1.2,3.4,1.8c1.2-2.1,2.2-4.4,2.9-6.8c2.7-9.6,5-14.3,6-24.4
		c0.4-3.8,1.4-5.3,5.7-4.4c1.4,12.2-1.3,18.7-5,30.5c-0.9,2.7-1.9,5.2-3.1,7.6c1.1,0.3,2.3,0.7,3.5,0.9c0.7-1.5,1.4-3,2-4.6
		C45,78.4,47.9,71.6,47,59.1c-0.3-4.6,1.5-5.4,5-4c0.5,9-1.1,12.1-0.1,20.7c0.9,7.5,2.9,14.1,6,19.8c1.1-0.2,2.2-0.4,3.3-0.6
		c-5.3-10.5-5.1-23.8-4.9-39c4.6-1,5.8,0.3,6.1,4.2c0.5,8.8-0.7,12.2,1.1,20.9c0.9,4.3,2.6,8.3,5.1,11.7c1.2-0.5,2.4-0.9,3.5-1.5
		c-7.6-8.8-6.2-19.6-6.1-33.6c7.4,1.5,6.7,1.5,7.4,7.9c0.8,7.9,1.3,9,3.5,16.6c0.3,1,1.3,2.8,2.6,4.8c1-0.7,2-1.4,2.9-2.2
		c-5.4-11.1-6.7-15.6-4.6-23.6C85.4,60.3,86.1,59.5,85.9,51.5z M20.5,51.3c-2.1-9.1,5.7-23.1,12.9-24.1
		C29.3,34.9,24.9,43.1,20.5,51.3z M36.9,26.3c-0.2-0.9-0.5-1.9-0.7-2.8c4.3-1,8.5-2.1,12.8-3.1c0.2,0.9,0.5,1.8,0.7,2.8
		C45.4,24.3,41.2,25.3,36.9,26.3z"/>
	<path class="st1" d="M20.5,51.3c-2.1-9.1,5.7-23.1,12.9-24.1C29.3,34.9,24.9,43.1,20.5,51.3z"/>
	<path class="st3" d="M50.1,29.5c-1.7,0-3.2,0.5-4.5,1.4c0.2,0,0.4,0,0.6,0c2.2,0,3.9,1.8,3.9,3.9s-1.8,3.9-3.9,3.9
		c-1.8,0-3.3-1.2-3.8-2.8c-0.1,0.5-0.1,0.9-0.1,1.4c0,4.3,3.5,7.8,7.8,7.8s7.8-3.5,7.8-7.8C57.9,33,54.4,29.5,50.1,29.5z"/>
	<circle class="st4" cx="46.2" cy="34.6" r="3.9"/>
</g>
<g class="st5">
	<path class="st1" d="M140.4,59.2c1.9-1.6,2.8-3.7,2.8-6.2V16.6h9.3v35.1c0,4-1.6,8-4.9,12c-3.3,4-7.7,6-13.3,6
		c-4.9,0-9.2-1.8-12.8-5.3c-3.6-3.5-5.4-7.6-5.4-12h9.3c0,2.8,0.9,5.1,2.8,6.8c1.9,1.7,3.9,2.5,6,2.5
		C136.5,61.7,138.6,60.8,140.4,59.2z"/>
	<path class="st1" d="M166.5,53.2c0.6,2.3,1.9,4.2,3.9,5.9c2,1.7,4.6,2.5,7.8,2.5c2.5,0,4.6-0.6,6.3-1.8c1.7-1.2,2.9-2.3,3.5-3.4
		h8.7c-1.5,4-3.8,7.2-6.9,9.6c-3.2,2.4-7,3.6-11.6,3.6c-5.5,0-10.2-1.9-14.1-5.8c-3.9-3.9-5.8-8.6-5.8-14.1c0-5.4,1.9-10.1,5.8-14
		c3.9-3.9,8.6-5.8,14.1-5.8c4.6,0,9.2,1.9,13.9,5.8c4.7,3.9,6.6,9.7,5.8,17.5H166.5z M189.6,45.2c-0.7-2.3-2.1-4-4.3-5.3
		c-2.2-1.3-4.5-1.9-7-1.9c-2.7,0-5,0.7-6.9,2.1c-1.9,1.4-3.4,3.1-4.3,5.1H189.6z"/>
	<path class="st1" d="M211.3,68.4H202V16.6h9.3V68.4z"/>
	<path class="st1" d="M227.2,68.4h-9.3V16.6h9.3V68.4z"/>
	<path class="st1" d="M231.1,31.2h9.6l10.4,26.3l10.4-26.3h9.5l-21.2,51.7h-8.4l5.6-14.5L231.1,31.2z"/>
	<path class="st1" d="M291.5,39.8c-0.9-1.1-2.3-1.7-4.1-1.8c-1.7,0-3.1,0.4-4.1,1.3c-1,0.8-1.4,1.9-1.2,3c0.1,0.8,1.1,1.7,3,2.5
		s3.7,1.6,5.4,2.1c2.4,0.8,5,2,7.6,3.5c2.7,1.5,4,4,4,7.5c0,3-1.4,5.8-4.1,8.2c-2.7,2.4-6.4,3.6-11,3.6c-5.1,0-8.9-1.6-11.4-4.7
		c-2.5-3.1-3.7-6-3.7-8.5h9.3c0,1.2,0.5,2.4,1.6,3.5c1.1,1.1,2.7,1.7,4.8,1.7c2,0,3.6-0.5,4.7-1.5c1.1-1,1.6-2.1,1.4-3.2
		c-0.1-0.9-0.6-1.7-1.7-2.4c-1-0.7-2.3-1.3-3.8-1.8c-2.7-1.1-5.9-2.4-9.5-3.9c-3.6-1.5-5.3-4.1-5.3-7.8c0-3.1,1.4-5.8,4.1-8
		c2.7-2.2,6.1-3.3,10.1-3.3c5.2,0,8.9,1.7,11.2,5c2.2,3.3,3.3,6.1,3.3,8.3h-9.3C292.9,42.1,292.4,40.9,291.5,39.8z"/>
	<path class="st1" d="M314.3,53.2c0.6,2.3,1.9,4.2,3.9,5.9c2,1.7,4.6,2.5,7.8,2.5c2.5,0,4.6-0.6,6.3-1.8c1.7-1.2,2.9-2.3,3.5-3.4
		h8.7c-1.5,4-3.8,7.2-6.9,9.6c-3.2,2.4-7,3.6-11.6,3.6c-5.5,0-10.2-1.9-14.1-5.8c-3.9-3.9-5.8-8.6-5.8-14.1c0-5.4,1.9-10.1,5.8-14
		c3.9-3.9,8.6-5.8,14.1-5.8c4.6,0,9.2,1.9,13.9,5.8c4.7,3.9,6.6,9.7,5.8,17.5H314.3z M337.3,45.2c-0.7-2.3-2.1-4-4.3-5.3
		c-2.2-1.3-4.5-1.9-7-1.9c-2.7,0-5,0.7-6.9,2.1c-1.9,1.4-3.4,3.1-4.3,5.1H337.3z"/>
	<path class="st1" d="M357.4,53.2c0.6,2.3,1.9,4.2,3.9,5.9c2,1.7,4.6,2.5,7.8,2.5c2.5,0,4.6-0.6,6.3-1.8c1.7-1.2,2.9-2.3,3.5-3.4
		h8.7c-1.5,4-3.8,7.2-6.9,9.6c-3.2,2.4-7,3.6-11.6,3.6c-5.5,0-10.2-1.9-14.1-5.8c-3.9-3.9-5.8-8.6-5.8-14.1c0-5.4,1.9-10.1,5.8-14
		c3.9-3.9,8.6-5.8,14.1-5.8c4.6,0,9.2,1.9,13.9,5.8c4.7,3.9,6.6,9.7,5.8,17.5H357.4z M380.4,45.2c-0.7-2.3-2.1-4-4.3-5.3
		c-2.2-1.3-4.5-1.9-7-1.9c-2.7,0-5,0.7-6.9,2.1c-1.9,1.4-3.4,3.1-4.3,5.1H380.4z"/>
	<path class="st1" d="M403.6,34.5c0.8-1,2.1-2,3.8-3c2.2-1.2,5.1-1.6,8.5-1v6.9c-3.7-0.3-6.5,0.1-8.3,1.2c-2.2,1.2-3.6,2.8-4.4,4.7
		c-0.8,1.9-1.2,3.2-1.2,3.9v21.4h-9.3V31.2h9.3v5.3C402.3,36.2,402.8,35.5,403.6,34.5z"/>
	<path class="st1" d="M430.8,34.5c0.8-1,2.1-2,3.8-3c2.2-1.2,5.1-1.6,8.5-1v6.9c-3.7-0.3-6.5,0.1-8.3,1.2c-2.2,1.2-3.6,2.8-4.4,4.7
		c-0.8,1.9-1.2,3.2-1.2,3.9v21.4H420V31.2h9.3v5.3C429.5,36.2,430,35.5,430.8,34.5z"/>
</g>
</svg>
