<?xml version="1.0" encoding="utf-8"?>
<!-- Generator: Adobe Illustrator 26.1.0, SVG Export Plug-In . SVG Version: 6.00 Build 0)  -->
<svg version="1.1" id="Layer_1" xmlns="http://www.w3.org/2000/svg" xmlns:xlink="http://www.w3.org/1999/xlink" x="0px" y="0px"
	 viewBox="0 0 332 165" style="enable-background:new 0 0 332 165;" xml:space="preserve">
<style type="text/css">
	.st0{fill:#000B25;}
	.st1{fill:#FFFFFF;}
	.st2{fill:url(#SVGID_1_);}
	.st3{fill-rule:evenodd;clip-rule:evenodd;fill:#1D1D1B;}
	.st4{fill-rule:evenodd;clip-rule:evenodd;fill:#FFFFFF;}
	.st5{enable-background:new    ;}
</style>
<g>
	<ellipse class="st0" cx="166.3" cy="47.7" rx="50" ry="48"/>
	<rect x="152.6" y="20.3" class="st1" width="13.5" height="5.6"/>
	
		<linearGradient id="SVGID_1_" gradientUnits="userSpaceOnUse" x1="132.8621" y1="871.9199" x2="202.1932" y2="911.9482" gradientTransform="matrix(1 0 0 1 0 -834)">
		<stop  offset="4.993059e-09" style="stop-color:#FFFFFF"/>
		<stop  offset="1.298195e-07" style="stop-color:#A85DC3"/>
		<stop  offset="0.1475" style="stop-color:#9864C5"/>
		<stop  offset="0.4344" style="stop-color:#6F75CC"/>
		<stop  offset="0.8288" style="stop-color:#2E90D5"/>
		<stop  offset="1" style="stop-color:#0F9DDA"/>
	</linearGradient>
	<path class="st2" d="M202.1,51.2c-0.5-18.3-17.8-35.6-35.7-35.8c-18-0.2-35.7,16.7-36.6,34.9c-0.4,8.6,0.2,9.4,8.9,10.9
		c0.9,9.6-0.5,15-6.5,21.7c0.8,0.7,1.6,1.4,2.5,2.1c0.2-0.2,0.4-0.4,0.6-0.7c5.3-7.3,7.9-10.3,7.3-18.8c-0.4-5.6,1.2-8.3,7.2-7.9
		c0.9,11.2-1.5,16.8-6.1,27.3c-0.7,1.6-1.5,3.1-2.4,4.4c1.1,0.6,2.3,1.2,3.4,1.8c1.2-2.1,2.2-4.4,2.9-6.8c2.7-9.6,5-14.3,6-24.4
		c0.4-3.8,1.4-5.3,5.7-4.4c1.4,12.2-1.3,18.7-5,30.5c-0.9,2.7-1.9,5.2-3.1,7.6c1.1,0.3,2.3,0.7,3.5,0.9c0.7-1.5,1.4-3,2-4.6
		c4.5-11.8,7.4-18.6,6.5-31.1c-0.3-4.6,1.5-5.4,5-4c0.5,9-1.1,12.1-0.1,20.7c0.9,7.5,2.9,14.1,6,19.8c1.1-0.2,2.2-0.4,3.3-0.6
		c-5.3-10.5-5.1-23.8-4.9-39c4.6-1,5.8,0.3,6.1,4.2c0.5,8.8-0.7,12.2,1.1,20.9c0.9,4.3,2.6,8.3,5.1,11.7c1.2-0.5,2.4-0.9,3.5-1.5
		c-7.6-8.8-6.2-19.6-6.1-33.6c7.4,1.5,6.7,1.5,7.4,7.9c0.8,7.9,1.3,9,3.5,16.6c0.3,1,1.3,2.8,2.6,4.8c1-0.7,2-1.4,2.9-2.2
		c-5.4-11.1-6.7-15.6-4.6-23.6C201.7,60,202.3,59.2,202.1,51.2z M136.8,51c-2.1-9.1,5.7-23.1,12.9-24.1
		C145.5,34.6,141.1,42.8,136.8,51z M153.1,26c-0.2-0.9-0.5-1.9-0.7-2.8c4.3-1,8.5-2.1,12.8-3.1c0.2,0.9,0.5,1.8,0.7,2.8
		C161.6,24,157.4,25,153.1,26z"/>
	<path class="st1" d="M136.8,51c-2.1-9.1,5.7-23.1,12.9-24.1C145.5,34.6,141.1,42.8,136.8,51z"/>
	<path class="st3" d="M166.3,29.2c-1.7,0-3.2,0.5-4.5,1.4c0.2,0,0.4,0,0.6,0c2.2,0,3.9,1.8,3.9,3.9s-1.8,3.9-3.9,3.9
		c-1.8,0-3.3-1.2-3.8-2.8c-0.1,0.5-0.1,0.9-0.1,1.4c0,4.3,3.5,7.8,7.8,7.8s7.8-3.5,7.8-7.8S170.6,29.2,166.3,29.2z"/>
	<circle class="st4" cx="162.4" cy="34.3" r="3.9"/>
</g>
<g class="st5">
	<path class="st1" d="M32.8,141.7c1.8-1.6,2.7-3.6,2.7-6v-35.2h9v33.9c0,3.8-1.6,7.7-4.8,11.6c-3.2,3.9-7.5,5.8-12.9,5.8
		c-4.8,0-8.9-1.7-12.3-5.1c-3.5-3.4-5.2-7.3-5.2-11.6h9c0,2.8,0.9,4.9,2.7,6.6c1.8,1.6,3.7,2.4,5.8,2.4
		C29,144.1,31,143.3,32.8,141.7z"/>
	<path class="st1" d="M58,136c0.6,2.2,1.9,4.1,3.8,5.7c2,1.6,4.5,2.4,7.6,2.4c2.4,0,4.5-0.6,6.1-1.7c1.7-1.2,2.8-2.2,3.4-3.3h8.4
		c-1.4,3.8-3.6,6.9-6.7,9.3c-3,2.3-6.8,3.5-11.2,3.5c-5.3,0-9.9-1.9-13.6-5.6c-3.8-3.8-5.6-8.3-5.6-13.6c0-5.3,1.9-9.8,5.6-13.5
		s8.3-5.6,13.6-5.6c4.4,0,8.9,1.9,13.4,5.6s6.4,9.4,5.6,16.9H58z M80.3,128.2c-0.7-2.2-2-3.9-4.1-5.1c-2.1-1.2-4.3-1.9-6.8-1.9
		c-2.6,0-4.8,0.7-6.7,2c-1.9,1.4-3.3,3-4.2,5H80.3z"/>
	<path class="st1" d="M101.3,150.6h-9v-50h9V150.6z"/>
	<path class="st1" d="M116.6,150.6h-9v-50h9V150.6z"/>
	<path class="st1" d="M120.4,114.7h9.3l10,25.4l10-25.4h9.1l-20.5,49.9h-8.1l5.4-14L120.4,114.7z"/>
	<path class="st1" d="M178.7,123c-0.9-1.1-2.2-1.7-3.9-1.8c-1.7,0-3,0.4-3.9,1.2c-1,0.8-1.4,1.8-1.2,2.9c0.1,0.8,1,1.6,2.9,2.4
		s3.6,1.5,5.3,2.1c2.3,0.8,4.8,2,7.4,3.4c2.6,1.5,3.9,3.9,3.9,7.2c0,2.9-1.3,5.6-3.9,7.9c-2.6,2.3-6.1,3.5-10.6,3.5
		c-5,0-8.6-1.5-11-4.5c-2.4-3-3.6-5.8-3.6-8.3h9c0,1.2,0.5,2.3,1.5,3.4c1,1.1,2.6,1.6,4.6,1.6c2,0,3.5-0.5,4.6-1.5
		c1.1-1,1.5-2,1.3-3.1c-0.1-0.9-0.6-1.7-1.6-2.3c-1-0.7-2.2-1.2-3.7-1.7c-2.6-1.1-5.7-2.3-9.1-3.7c-3.4-1.4-5.2-3.9-5.2-7.5
		c0-3,1.3-5.6,3.9-7.7c2.6-2.1,5.9-3.2,9.7-3.2c5,0,8.6,1.6,10.8,4.8c2.1,3.2,3.2,5.9,3.2,8.1h-9C180.1,125.2,179.6,124.1,178.7,123
		z"/>
	<path class="st1" d="M200.7,136c0.6,2.2,1.9,4.1,3.8,5.7c2,1.6,4.5,2.4,7.6,2.4c2.4,0,4.5-0.6,6.1-1.7c1.7-1.2,2.8-2.2,3.4-3.3h8.4
		c-1.4,3.8-3.6,6.9-6.7,9.3c-3,2.3-6.8,3.5-11.2,3.5c-5.3,0-9.9-1.9-13.6-5.6c-3.8-3.8-5.6-8.3-5.6-13.6c0-5.3,1.9-9.8,5.6-13.5
		c3.8-3.8,8.3-5.6,13.6-5.6c4.4,0,8.9,1.9,13.4,5.6c4.5,3.8,6.4,9.4,5.6,16.9H200.7z M223,128.2c-0.7-2.2-2-3.9-4.1-5.1
		c-2.1-1.2-4.3-1.9-6.8-1.9c-2.6,0-4.8,0.7-6.7,2c-1.9,1.4-3.3,3-4.2,5H223z"/>
	<path class="st1" d="M242.3,136c0.6,2.2,1.9,4.1,3.8,5.7c2,1.6,4.5,2.4,7.6,2.4c2.4,0,4.5-0.6,6.1-1.7c1.7-1.2,2.8-2.2,3.4-3.3h8.4
		c-1.4,3.8-3.6,6.9-6.7,9.3c-3,2.3-6.8,3.5-11.2,3.5c-5.3,0-9.9-1.9-13.6-5.6c-3.8-3.8-5.6-8.3-5.6-13.6c0-5.3,1.9-9.8,5.6-13.5
		c3.8-3.8,8.3-5.6,13.6-5.6c4.4,0,8.9,1.9,13.4,5.6c4.5,3.8,6.4,9.4,5.6,16.9H242.3z M264.6,128.2c-0.7-2.2-2-3.9-4.1-5.1
		c-2.1-1.2-4.3-1.9-6.8-1.9c-2.6,0-4.8,0.7-6.7,2c-1.9,1.4-3.3,3-4.2,5H264.6z"/>
	<path class="st1" d="M287.1,117.9c0.8-1,2-2,3.7-2.9c2.2-1.2,4.9-1.5,8.3-1v6.6c-3.6-0.2-6.3,0.1-8,1.1c-2.1,1.2-3.5,2.7-4.3,4.5
		c-0.8,1.8-1.1,3.1-1.1,3.8v20.6h-9v-35.9h9v5.1C285.8,119.5,286.3,118.9,287.1,117.9z"/>
	<path class="st1" d="M313.3,117.9c0.8-1,2-2,3.7-2.9c2.2-1.2,4.9-1.5,8.3-1v6.6c-3.6-0.2-6.3,0.1-8,1.1c-2.1,1.2-3.5,2.7-4.3,4.5
		c-0.8,1.8-1.1,3.1-1.1,3.8v20.6h-9v-35.9h9v5.1C312,119.5,312.5,118.9,313.3,117.9z"/>
</g>
</svg>
