<?xml version="1.0" encoding="UTF-8" standalone="no"?>
<svg
   xmlns:dc="http://purl.org/dc/elements/1.1/"
   xmlns:cc="http://creativecommons.org/ns#"
   xmlns:rdf="http://www.w3.org/1999/02/22-rdf-syntax-ns#"
   xmlns:svg="http://www.w3.org/2000/svg"
   xmlns="http://www.w3.org/2000/svg"
   version="1.1"
   id="svg2"
   viewBox="0 0 744.09448819 1052.3622047"
   height="297mm"
   width="210mm">
  <defs
     id="defs4">
    <marker
       refY="0.0"
       refX="0.0"
       style="overflow:visible"
       id="DistanceX"
       orient="auto">
      <path
         style="stroke:#000000; stroke-width:0.5"
         d="M 3,-3 L -3,3 M 0,-5 L  0,5"
         id="path3343" />
    </marker>
    <pattern
       height="8"
       width="8"
       patternUnits="userSpaceOnUse"
       y="0"
       x="0"
       id="Hatch">
      <path
         linecap="square"
         stroke="#000000"
         stroke-width="0.25"
         d="M8 4 l-4,4"
         id="path3346" />
      <path
         linecap="square"
         stroke="#000000"
         stroke-width="0.25"
         d="M6 2 l-4,4"
         id="path3348" />
      <path
         linecap="square"
         stroke="#000000"
         stroke-width="0.25"
         d="M4 0 l-4,4"
         id="path3350" />
    </pattern>
    <symbol
       id="*Model_Space" />
    <symbol
       id="*Paper_Space" />
    <symbol
       id="*Paper_Space0" />
  </defs>
  <metadata
     id="metadata7">
    <rdf:RDF>
      <cc:Work
         rdf:about="">
        <dc:format>image/svg+xml</dc:format>
        <dc:type
           rdf:resource="http://purl.org/dc/dcmitype/StillImage" />
        <dc:title></dc:title>
      </cc:Work>
    </rdf:RDF>
  </metadata>
  <g
     id="layer1">
    <path
       id="path3427"
       d="m 327.06546,642.18589 c -45.39663,-45.86009 -82.73776,-83.3683 -82.98029,-83.3516 -0.24253,0.0167 -7.23324,6.65975 -15.53493,14.7623 l -15.09396,14.73193 -40.13624,-40.38805 C 151.24511,525.72706 108.73555,482.86504 78.854363,452.69158 l -54.329437,-54.86086 83.720394,-82.90796 83.72039,-82.90797 -15.19316,-15.20441 -15.19315,-15.20443 95.18008,-94.29313 c 52.34904,-51.86121 95.35849,-94.293118 95.57653,-94.293118 0.21805,0 37.39519,37.357576 82.61589,83.016832 45.22068,45.659256 82.53772,83.131956 82.92673,83.272666 0.38901,0.14071 7.46336,-6.49498 15.72077,-14.746 l 15.01348,-15.00184 7.14591,7.19902 c 73.95232,74.50189 181.50599,183.56427 181.36678,183.9109 -0.10065,0.25064 -37.54056,37.44106 -83.19981,82.64536 -45.65926,45.2043 -83.10802,82.41429 -83.21946,82.68884 -0.11145,0.27456 6.50478,7.34753 14.70272,15.71771 l 14.90534,15.21851 -15.3888,15.28883 c -21.09609,20.95904 -162.95155,161.27018 -169.79551,167.947 l -5.52526,5.39033 -82.53933,-83.38197 z m 89.8523,-204.1566 c 64.84836,-37.53366 117.81919,-68.54793 117.71294,-68.92058 -0.15927,-0.55862 -233.55022,-136.2489 -236.27084,-137.3646 -0.68441,-0.28068 -0.85761,27.45642 -0.85761,137.33982 0,99.83563 0.20749,137.62237 0.75471,137.43996 0.41509,-0.13837 53.81245,-30.96093 118.6608,-68.4946 z"
       style="fill:#52b54b;fill-opacity:1;stroke:none" />
  </g>
</svg>
