<svg id="banner-dark" xmlns="http://www.w3.org/2000/svg" xmlns:xlink="http://www.w3.org/1999/xlink" viewBox="0 0 1536 512">
  <g
     id="jellyfin-icon"
     style="display:inline">
    <path
       fill="url(#a)"
       d="m 170.53417,333.61444 c -9.15451,-18.37978 50.88068,-127.23115 69.53181,-127.23115 18.68063,0.0118 78.58604,109.05191 69.53181,127.23115 -9.05425,18.17337 -129.91499,18.37393 -139.06951,0 z"
       id="inner-shape"
       style="fill:url(#linearGradient5);stroke-width:5.89852" />
    <path
       fill="url(#a)"
       fill-rule="evenodd"
       d="M 30.556301,427.03528 C 2.9807019,371.64813 183.90023,43.660695 240.07187,43.660695 c 56.23064,0 236.84345,328.624475 209.55688,383.374585 -27.28657,54.7501 -391.473253,55.39304 -419.060651,0 m 72.286411,-48.06117 c 18.07898,36.28772 256.69198,35.88661 274.56451,0 17.87251,-35.89844 -100.46956,-251.20046 -137.28816,-251.20046 -36.81861,0 -155.367121,214.90683 -137.29405,251.20046 z"
       clip-rule="evenodd"
       id="outer-shape"
       style="fill:url(#linearGradient6);stroke-width:5.89852" />
  </g>
  <path
     fill="#ffffff"
     d="m 869.6804,127.73236 c -1.6516,0 -2.46562,0 -3.09675,0.32442 a 2.9492622,2.9492622 0 0 0 -1.30357,1.28588 c -0.3185,0.63114 -0.31261,1.46283 -0.31261,3.11442 v 236.79626 c 0,1.65158 0,2.47738 0.31261,3.10851 0.2831,0.55446 0.74907,1.00275 1.29767,1.29178 0.63703,0.31852 1.45105,0.32443 3.10265,0.32443 h 33.17919 c 1.65159,0 2.47731,-0.006 3.10852,-0.32443 a 2.9492622,2.9492622 0 0 0 1.29767,-1.29178 c 0.31261,-0.63113 0.31851,-1.45693 0.31851,-3.10851 V 132.45708 c 0,-1.65159 0,-2.47738 -0.3244,-3.11442 a 2.9492622,2.9492622 0 0 0 -1.29178,-1.28588 c -0.63121,-0.32442 -1.45693,-0.32442 -3.10852,-0.32442 z m 68.5467,0 c -1.6516,0 -2.47732,0 -3.10853,0.32442 a 2.9492622,2.9492622 0 0 0 -1.29767,1.28588 c -0.31263,0.63114 -0.31852,1.46283 -0.31852,3.11442 v 236.79626 c 0,1.65158 0,2.47738 0.32441,3.10851 0.28317,0.55446 0.73149,1.00275 1.29178,1.29178 0.63121,0.31852 1.45693,0.32443 3.10853,0.32443 h 33.1674 c 1.6516,0 2.47741,-0.006 3.10854,-0.32443 a 2.9492622,2.9492622 0 0 0 1.29767,-1.29178 c 0.3185,-0.63113 0.3185,-1.45693 0.3185,-3.10851 V 132.45708 c 0,-1.65159 0,-2.47738 -0.3244,-3.11442 a 2.9492622,2.9492622 0 0 0 -1.29177,-1.28588 c -0.63113,-0.32442 -1.45694,-0.32442 -3.10854,-0.32442 z m 316.7095,0 q -30.578,0 -48.7985,16.59255 -18.2147,16.58664 -18.2147,46.83429 v 5.85724 h -59.9644 c -1.7696,0 -2.6601,0 -3.4211,0.28902 a 4.4238932,4.4238932 0 0 0 -1.7401,1.221 c -0.5367,0.61344 -0.8435,1.43923 -1.4629,3.0967 l -43.8259,117.36885 -44.1445,-117.39243 c -0.6193,-1.6516 -0.9261,-2.47738 -1.4629,-3.08492 a 4.4828784,4.4828784 0 0 0 -1.7519,-1.2092 c -0.7669,-0.29492 -1.6516,-0.28902 -3.4093,-0.28902 h -34.02276 c -2.324,0 -3.48008,0.006 -4.22916,0.49547 a 2.9492622,2.9492622 0 0 0 -1.25646,1.84033 c -0.17692,0.87298 0.23598,1.95241 1.0972,4.11717 l 67.38468,170.50274 -3.9048,9.43764 q -5.2202,11.05383 -12.0389,17.89022 -6.5061,6.8305 -21.1404,6.8305 -5.2142,0 -11.0597,-0.97915 a 76.680815,76.680815 0 0 1 -4.3,-0.60165 c -2.2945,-0.38341 -3.44476,-0.57216 -4.18205,-0.29493 a 2.7723064,2.7723064 0 0 0 -1.53359,1.28588 c -0.38932,0.68422 -0.38932,1.76955 -0.38932,3.91661 v 25.52882 c 0,1.43334 0,2.15297 0.26546,2.83129 a 4.3649078,4.3649078 0 0 0 1.12064,1.58081 c 0.55455,0.47778 1.1326,0.67832 2.30046,1.08533 a 47.188194,47.188194 0 0 0 8.6708,2.07037 q 6.8364,1.29769 13.9914,1.30359 25.0393,0 41.6317,-14.30983 16.9111,-13.97949 26.9976,-39.68527 l 62.0407,-156.78277 h 33.7395 v 134.16784 c 0,1.65157 0,2.47737 0.3244,3.10851 a 2.9492622,2.9492622 0 0 0 1.2919,1.29178 c 0.631,0.31851 1.445,0.32441 3.0965,0.32441 h 33.1794 c 1.6515,0 2.4832,-0.006 3.1084,-0.32441 a 2.9492622,2.9492622 0 0 0 1.2977,-1.29178 c 0.3187,-0.63114 0.3187,-1.45694 0.3187,-3.10851 V 235.07961 h 34.6419 c 1.6517,0 2.4657,0 3.0968,-0.32442 a 2.9492622,2.9492622 0 0 0 1.2977,-1.29179 c 0.3125,-0.62524 0.3185,-1.45693 0.3185,-3.10852 v -28.61962 c 0,-1.6516 0,-2.47738 -0.3244,-3.10852 a 2.9492622,2.9492622 0 0 0 -1.2918,-1.29178 c -0.6311,-0.31852 -1.4451,-0.31852 -3.0968,-0.31852 h -34.6419 v -5.85136 q 0,-13.33656 7.7977,-19.52411 8.14,-6.50017 22.1195,-6.50606 2.6838,0 5.5447,0.26544 c 2.035,0.18875 3.0554,0.27722 3.7397,-0.0236 a 2.8312917,2.8312917 0 0 0 1.4157,-1.29767 c 0.3655,-0.66063 0.3597,-1.62209 0.3597,-3.53912 v -26.11869 c 0,-1.79315 0,-2.68382 -0.3539,-3.46243 a 4.128967,4.128967 0 0 0 -1.4629,-1.68698 c -0.7195,-0.46008 -1.5394,-0.56626 -3.1675,-0.79041 a 82.579339,82.579339 0 0 0 -11.5905,-0.74911 z m -643.47004,3.90482 c -1.6516,0 -2.47738,0 -3.10853,0.32443 a 2.9492622,2.9492622 0 0 0 -1.29768,1.29177 c -0.31262,0.63114 -0.31851,1.44514 -0.31851,3.09672 v 164.10874 q 0.006,14.95867 -9.43764,24.06599 -9.10142,8.7829 -24.71481,8.7888 h -9.26658 c -1.65159,0 -2.47739,0 -3.10853,0.31262 a 2.9492622,2.9492622 0 0 0 -1.29768,1.29767 c -0.31262,0.63704 -0.30671,1.45104 -0.30671,3.10263 v 31.2209 c 0,1.65157 0,2.47737 0.31261,3.10851 a 2.9492622,2.9492622 0 0 0 1.29178,1.29767 c 0.63114,0.31262 1.45694,0.31852 3.10853,0.31852 h 9.26068 q 24.08366,0 41.64357,-9.43763 17.89614,-9.43174 27.32199,-26.3487 9.76205,-16.91107 9.76795,-39.34906 V 136.3501 c 0,-1.65158 -0.0118,-2.47148 -0.33621,-3.10262 a 2.9492622,2.9492622 0 0 0 -1.27408,-1.29177 c -0.63115,-0.31853 -1.46284,-0.31853 -3.11443,-0.31853 z m 675.55804,0 c -0.9615,0.0177 -1.5455,0.0826 -2.0174,0.32443 a 2.9492622,2.9492622 0 0 0 -1.2799,1.29177 c -0.3244,0.63114 -0.3185,1.44514 -0.3185,3.09672 v 36.10486 c 0,1.65161 0,2.47739 0.3185,3.10854 a 2.9492622,2.9492622 0 0 0 1.2799,1.29768 c 0.6312,0.3185 1.4629,0.3185 3.1145,0.3185 h 33.1791 c 1.6516,0 2.4656,0 3.0968,-0.32441 a 2.9492622,2.9492622 0 0 0 1.2976,-1.29177 c 0.3245,-0.63115 0.3127,-1.45693 0.3127,-3.10854 V 136.3501 c 0,-1.65158 0.01,-2.46558 -0.3068,-3.09672 a 2.9492622,2.9492622 0 0 0 -1.3035,-1.29767 c -0.6312,-0.31853 -1.4452,-0.31853 -3.0968,-0.31853 z m -527.54046,61.47441 q -24.72073,0 -44.89368,12.0389 -19.83674,12.03299 -31.54529,32.85479 -11.38416,20.49736 -11.38416,47.1705 0,25.68805 11.38416,46.83428 c 11.38413,21.15211 18.21464,25.26928 31.87563,33.50363 q 20.49144,12.3692 47.81341,12.3633 26.99165,0 47.16461,-12.033 18.25002,-11.01255 26.70263,-27.1686 c 0.67242,-1.29768 1.01454,-1.94652 1.01454,-2.66024 a 3.1262178,3.1262178 0 0 0 -0.58986,-1.76956 c -0.42468,-0.57216 -1.12071,-0.92017 -2.53636,-1.6103 l -25.18079,-12.34562 c -1.84034,-0.90837 -2.76052,-1.36843 -3.5804,-1.40974 a 3.5391145,3.5391145 0 0 0 -2.07628,0.49547 c -0.71962,0.40111 -1.43337,1.32718 -2.85489,3.19111 a 48.367898,48.367898 0 0 1 -13.01807,11.72037 q -10.08646,6.18166 -24.7207,6.18166 -19.19968,0.006 -32.20593,-11.70267 -13.00625,-11.71448 -14.95276,-31.23268 h 124.20522 c 1.1797,0 1.75775,0 2.31812,-0.23594 a 3.2441884,3.2441884 0 0 0 1.221,-0.98507 c 0.35391,-0.48957 0.46009,-0.98505 0.67832,-1.9583 q 0.53087,-2.31224 0.71373,-4.95476 0.64884,-4.87809 0.64884,-9.75616 0,-23.74156 -10.08649,-43.25977 -10.08647,-19.51823 -29.26847,-31.2327 -19.19971,-12.03299 -46.84608,-12.0389 m 682.10536,0 q -16.5925,0 -29.9291,6.51198 a 46.598341,46.598341 0 0 0 -20.1613,19.19381 v -17.08212 c 0,-1.6516 0,-2.47738 -0.3244,-3.10852 a 2.9492622,2.9492622 0 0 0 -1.2918,-1.29768 c -0.6311,-0.31852 -1.4569,-0.31852 -3.1085,-0.31852 h -30.566 c -1.6517,0 -2.4774,0 -3.1085,0.32442 a 2.9492622,2.9492622 0 0 0 -1.2919,1.29178 c -0.3185,0.63114 -0.3185,1.45692 -0.3185,3.10852 v 167.50627 c 0,1.6516 0,2.47739 0.3185,3.10853 a 2.9492622,2.9492622 0 0 0 1.2978,1.29768 c 0.6252,0.31261 1.4509,0.31851 3.1026,0.31851 h 33.1673 c 1.6515,0 2.4773,0 3.1145,-0.32441 a 2.9492622,2.9492622 0 0 0 1.2916,-1.29178 c 0.3187,-0.63114 0.3187,-1.45693 0.3187,-3.10853 V 270.2053 q 0.01,-17.23546 9.762,-27.64637 10.0865,-10.41678 26.0244,-10.41678 15.9378,0.006 25.688,10.41678 10.0865,10.08648 10.0865,27.64637 v 99.04215 c 0,1.65157 -0.01,2.47737 0.3184,3.10851 a 2.9492622,2.9492622 0 0 0 1.292,1.29767 c 0.6309,0.31262 1.4569,0.31852 3.1084,0.31852 h 33.1791 c 1.6515,0 2.4773,0 3.1085,-0.32441 a 2.9492622,2.9492622 0 0 0 1.28,-1.29178 c 0.3245,-0.63114 0.3362,-1.45694 0.3362,-3.10851 V 260.12473 q -0.01,-19.84852 -8.4702,-34.80128 a 59.575094,59.575094 0 0 0 -23.7415,-23.75926 q -14.9647,-8.45849 -34.4828,-8.4526 m -153.4561,3.90485 c -1.6515,0 -2.4773,0 -3.1084,0.32442 a 2.9492622,2.9492622 0 0 0 -1.2801,1.29177 c -0.3242,0.63113 -0.3242,1.45693 -0.3242,3.10851 v 167.50631 c 0,1.65157 0,2.47737 0.3242,3.10851 a 2.9492622,2.9492622 0 0 0 1.2801,1.29767 c 0.6311,0.31262 1.4569,0.31852 3.1084,0.31852 h 33.1793 c 1.6515,0 2.4655,0 3.0968,-0.32441 a 2.9492622,2.9492622 0 0 0 1.3035,-1.29178 c 0.3185,-0.63114 0.3126,-1.45694 0.3126,-3.10851 V 201.74114 c 0,-1.65158 0,-2.47738 -0.3126,-3.10851 a 2.9492622,2.9492622 0 0 0 -1.2977,-1.29767 c -0.6371,-0.31852 -1.4511,-0.31852 -3.1026,-0.31852 z m -528.63156,31.23269 q 16.91695,0 27.9708,10.40499 11.38414,10.08648 12.68181,26.34871 h -83.26356 q 3.58041,-17.56581 14.96456,-26.99755 11.70858,-9.75615 27.64639,-9.75615"
     id="jellyfn-text"
     style="stroke-width:5.89852" />
  <defs
     id="defs4">
    <linearGradient
       id="a"
       x1="47"
       x2="107"
       y1="84"
       y2="117"
       gradientTransform="translate(-34.501,-54)"
       gradientUnits="userSpaceOnUse">
      <stop
         offset="0"
         stop-color="#AA5CC3"
         id="stop3" />
      <stop
         offset="1"
         stop-color="#00A4DC"
         id="stop4" />
    </linearGradient>
    <linearGradient
       xlink:href="#a"
       id="linearGradient5"
       gradientUnits="userSpaceOnUse"
       gradientTransform="matrix(5.898524,0,0,5.898524,-178.72923,-274.86549)"
       x1="47"
       y1="84"
       x2="107"
       y2="117" />
    <linearGradient
       xlink:href="#a"
       id="linearGradient6"
       gradientUnits="userSpaceOnUse"
       gradientTransform="matrix(5.898524,0,0,5.898524,-178.72923,-274.86549)"
       x1="47"
       y1="84"
       x2="107"
       y2="117" />
  </defs>
</svg>
