<?xml version="1.0" encoding="UTF-8"?>
<svg viewBox="0 0 250 250" version="1.1" xmlns="http://www.w3.org/2000/svg" xmlns:xlink="http://www.w3.org/1999/xlink">
    <!-- Generator: Sketch 51.3 (57544) - http://www.bohemiancoding.com/sketch -->
    <title>letterboxd-logo-alt-neg</title>
    <desc>Created with Sketch.</desc>
    <defs></defs>
    <g id="letterboxd-logo-alt-neg" stroke="none" stroke-width="1" fill="none" fill-rule="evenodd">
        <rect fill="#202830" x="0" y="0" width="250" height="250"></rect>
        <g id="Angled-Lockup" transform="translate(18.000000, 30.000000)">
            <g id="Dots" transform="translate(30.000000, 0.000000)">
                <ellipse id="Blue" fill="#40BCF4" cx="125.649839" cy="28.6950312" rx="28.5961702" ry="28.6950312"></ellipse>
                <ellipse id="Green" fill="#00E054" cx="77.1230044" cy="28.6950312" rx="28.5961702" ry="28.6950312"></ellipse>
                <ellipse id="Orange" fill="#FF8000" cx="28.5961702" cy="28.6950312" rx="28.5961702" ry="28.6950312"></ellipse>
                <path d="M52.8595873,43.8882745 C50.1138316,39.4822842 48.5268343,34.2746299 48.5268343,28.6950312 C48.5268343,23.1154324 50.1138316,17.9077781 52.8595873,13.5017878 C55.605343,17.9077781 57.1923404,23.1154324 57.1923404,28.6950312 C57.1923404,34.2746299 55.605343,39.4822842 52.8595873,43.8882745 Z" id="Overlap" fill="#FFFFFF"></path>
                <path d="M101.386422,13.5017878 C104.132177,17.9077781 105.719175,23.1154324 105.719175,28.6950312 C105.719175,34.2746299 104.132177,39.4822842 101.386422,43.8882745 C98.6406658,39.4822842 97.0536685,34.2746299 97.0536685,28.6950312 C97.0536685,23.1154324 98.6406658,17.9077781 101.386422,13.5017878 Z" id="Overlap" fill="#FFFFFF"></path>
            </g>
            <path d="M192.383003,121.61002 L180.906477,123.052193 L181.179811,86.497737 L190.188229,85.3649326 L191.675347,92.6711717 C192.889133,86.8513022 196.547862,84.0623239 202.964246,83.2551717 L205.000347,83.0004652 L204.90885,95.0379652 L200.713879,95.5648239 C194.174726,96.3870957 192.552099,98.9202043 192.503455,105.412313 L192.383003,121.61002 Z M176.660429,112.000605 C174.62896,119.937214 169.039525,125.488421 158.612322,126.798008 C146.210401,128.357649 140.463452,122.027203 140.548,110.745682 L140.556107,109.674518 C140.64413,97.9510402 147.916418,89.9225511 159.083706,88.5187576 C171.732322,86.9288772 177.036842,94.6363663 176.963876,104.53154 L176.931446,108.628942 L151.696757,111.800562 C152.219102,116.142203 154.669836,118.22754 158.988734,117.684399 C162.135542,117.287801 163.873989,115.685127 164.753056,113.496279 L176.660429,112.000605 Z M159.141616,97.2008772 C154.946644,97.7277359 152.523706,100.236421 151.751192,104.615279 L165.879977,102.839312 C165.417859,98.8047141 163.337746,96.6728554 159.141616,97.2008772 Z M85.4504859,123.66 C83.4178588,131.596609 77.8284237,137.147815 67.4012203,138.458565 C55.0004576,140.017043 49.2535085,133.686598 49.3368983,122.405076 L49.3450056,121.333913 C49.4330282,109.611598 56.7064746,101.581946 67.8726045,100.178152 C80.5212203,98.5882717 85.8257401,106.296924 85.752774,116.192098 L85.7215028,120.288337 L60.4868136,123.459957 C61.008,127.801598 63.4598927,129.886935 67.7776328,129.343793 C70.9244407,128.948359 72.662887,127.344522 73.5419548,125.156837 L85.4504859,123.66 Z M67.9316723,108.860272 C63.7355424,109.388293 61.3126045,111.895815 60.5400904,116.274674 L74.6688757,114.498707 C74.2067571,110.464109 72.1266441,108.333413 67.9316723,108.860272 Z M111.996133,95.3887391 L111.997291,95.3515217 C113.354692,95.1817174 114.281246,94.9386413 115.517037,94.5315761 C117.80215,93.9302826 118.67311,92.8125978 119.065737,89.6781957 C119.26263,88.1418152 119.364551,86.8554891 119.437517,85.3342283 L128.69263,84.1711848 L128.623138,93.3103804 L137.138167,92.2403804 L137.062884,102.387935 L128.547856,103.456772 L128.481839,112.217978 C128.434353,118.520511 129.355116,119.09738 134.660794,118.430957 L136.944749,118.143685 L136.864833,128.794837 L131.188534,129.507783 C120.390709,130.865054 117.767404,127.228217 117.85311,115.819924 L117.935342,104.790783 L111.889579,105.551413 L111.889579,105.539783 L103.467206,106.598152 L103.402347,115.358196 C103.354862,121.660728 104.274466,122.237598 109.581302,121.571174 L111.864099,121.285065 L111.784184,131.936217 L106.107884,132.649163 C95.3112175,134.006435 92.6867542,130.369598 92.7724605,118.961304 L92.8558503,107.932163 L86.8089294,108.69163 L86.8795791,99.1744457 C88.2369802,99.0046413 89.1635339,98.7615652 90.4004831,98.3545 C92.6844379,97.7532065 93.5565565,96.6355217 93.9491836,93.5011196 C94.1460763,91.9659022 94.2839011,89.9957065 94.3580254,88.4756087 L103.61198,87.3125652 L103.543647,96.4517609 L111.996133,95.3887391 Z M46.6018277,140.127882 L16.4309237,143.919403 L16.7691158,98.730512 L28.3684096,97.2720554 L28.1147655,131.180588 L46.6863757,128.84636 L46.6018277,140.127882 Z M64.7998051,188.327776 C59.2601723,188.98257 55.7103136,186.754178 54.0077712,182.861472 L53.0429972,188.815091 L43.0350593,190.000233 L43.7044944,143.56107 L55.0339294,142.22008 L54.7872345,159.288907 C56.7966977,155.077526 60.4809068,152.2932 65.5792684,151.68958 C73.7607373,150.781243 79.7265847,155.43458 79.5551723,167.254591 L79.5401158,168.340874 C79.3687034,180.221363 73.8001158,187.262428 64.7998051,188.327776 Z M61.2244661,179.178113 C65.4414435,178.679167 68.0589576,175.7797 68.1481384,169.628363 L68.1597203,168.783993 C68.2407938,163.235113 65.510935,160.789233 61.5452853,161.257939 C57.3920085,161.749907 54.5139011,165.161113 54.440935,170.286646 L54.4293531,171.0717 C54.3413305,177.162559 57.0700311,179.668917 61.2244661,179.178113 Z M101.258534,184.014048 C89.4241271,185.414352 82.9637316,180.278352 83.1316695,168.63745 L83.1478842,167.55233 C83.3181384,155.671841 91.0849746,148.671483 101.848054,147.39795 C112.799918,146.101157 120.137065,151.495352 119.969127,163.19557 L119.952912,164.280689 C119.784975,175.920428 112.399184,182.695157 101.258534,184.014048 Z M101.456585,174.53757 C105.67472,174.038624 108.483336,170.997265 108.562093,165.5077 L108.575992,164.543537 C108.658223,158.814385 106.183167,156.15683 101.777404,156.677874 C97.496726,157.184961 94.6244096,160.354254 94.5398616,166.204363 L94.5259633,167.169689 C94.4483644,172.537135 97.2407655,175.036515 101.456585,174.53757 Z M144.589975,177.982504 L138.060088,168.881689 L131.245285,179.561917 L117.775511,181.155287 L131.509353,161.348657 L119.539438,146.026722 L132.505398,144.492667 L138.357743,152.650254 L144.46489,143.077243 L157.368308,141.550167 L144.980285,159.633167 L157.68102,176.43333 L144.589975,177.982504 Z M182.054014,173.548983 L181.073025,167.584896 C179.188647,171.90095 175.498647,174.987667 169.89763,175.650602 C161.086105,176.692689 155.634494,171.256624 155.807065,159.255178 L155.822121,158.230537 C155.991218,146.469841 162.112263,140.326646 170.483675,139.335733 C175.770822,138.710015 179.202545,140.411548 180.976895,143.754135 L181.214325,127.290091 L192.480059,125.95608 L191.810624,172.395243 L182.054014,173.548983 Z M173.808845,165.85545 C178.025822,165.356504 180.836754,162.133711 180.92246,156.223124 L180.932884,155.439233 C181.010483,150.132265 178.346641,147.43633 174.255907,147.92132 C169.976387,148.427243 167.417941,151.55932 167.338025,157.047722 L167.326444,157.831613 C167.236105,164.103907 169.905737,166.317178 173.808845,165.85545 Z M40.3698277,171.769759 L-0.000115819209,176.95577 L0.179403955,169.338998 L40.4265791,164.166943 L40.3698277,171.769759 Z" id="Wordmark-Angled" fill="#FFFFFF"></path>
        </g>
    </g>
</svg>
